<svg xmlns="http://www.w3.org/2000/svg" viewBox="0 0 12.66 15.54"><defs><style>.cls-1{fill:#fff;}.cls-1,.cls-2,.cls-3{stroke:#000;stroke-miterlimit:10;}.cls-2,.cls-3{fill:none;}.cls-3{stroke-width:0.47px;}</style></defs><g id="Layer_2" data-name="Layer 2"><g id="labels"><path class="cls-1" d="M9.12,6.65v5.43a3,3,0,0,1-2.95,3H3.45a3,3,0,0,1-2.95-3V6.65Z"/><path class="cls-2" d="M9.12,7.79h1.79A1.25,1.25,0,0,1,12.16,9v2.14a1.25,1.25,0,0,1-1.25,1.25H9.12"/><path class="cls-3" d="M3.27.17c-.82.79-1,1.35-.88,1.73.11.66.82.86.95,1.56A2,2,0,0,1,2.73,5"/><path class="cls-3" d="M5.32.46c-.66.57-.78,1-.76,1.33,0,.62.61.92.61,1.63a1.59,1.59,0,0,1-.33.94"/><path class="cls-3" d="M7.25,1.22a1.72,1.72,0,0,0-.77,1.33c0,.62.61.92.62,1.63a1.66,1.66,0,0,1-.33.94"/></g></g></svg>